<svg id="Layer_1" data-name="Layer 1" xmlns="http://www.w3.org/2000/svg" viewBox="0 0 60 60"><defs><style>.cls-1{fill:#f05983;}</style></defs><path class="cls-1" d="M30,0A30,30,0,1,0,60,30,30,30,0,0,0,30,0Zm0,59A29,29,0,1,1,59,30,29,29,0,0,1,30,59Zm7.86-30H36.79V25.79a6.79,6.79,0,1,0-13.58,0V29H22.14A2.14,2.14,0,0,0,20,31.14v8.57a2.14,2.14,0,0,0,2.13,2.15H37.86A2.14,2.14,0,0,0,40,39.72h0V31.14A2.14,2.14,0,0,0,37.86,29Zm-4.64-3.21V29H26.79V25.79a3.22,3.22,0,0,1,6.43-.36A2.16,2.16,0,0,1,33.22,25.79Z"/></svg>